# xmcd CD database file generated by Grip 3.0.3
# 
# Track frame offsets:
#       182
#       4360
#       19070
#       26907
#       49092
#       50747
#       60282
#       74295
#       76882
#       84725
#       107757
#       125947
#       132082
#       134340
#       155655
#       170757
#       180275
#       206450
#       214262
#       216802
#       223807
#       226210
#       254950
#       264750
# 
# Disc length: 3590 seconds
# 
# Revision: 1
# Processed by: cddbd v1.4PL0 Copyright (c) Steve Scherf et al.
# Submitted via: Grip 3.0.3
# 
DISCID=690e0418
DTITLE=Stivin Jiri - Me mladi je u konce
DYEAR=1997
DGENRE=Jazz
TTITLE0=Jiri Stivin - Variace I
TTITLE1=Girolamo Frescobaldi - Canzona seconda delta la Bernardinia
TTITLE2=Cupararee or Grays In (Masque)
TTITLE3=Giovanni Paolo Cima - Sonata 2
TTITLE4=Jiri Stivin - Variace II
TTITLE5=Giovanni Battista Riccio - Canzana La rubina
TTITLE6=Girolamo Frescobaldi - Canzona quarta detta la Donatina
TTITLE7=Jiri Stivin - Variace III
TTITLE8=Paolo Quagliati - Toccata
TTITLE9=Salamone Rossi - Sonata sopra l' aria di Ruggiero
TTITLE10=Jacob van Eyck - Pavane Lachrymae
TTITLE11=The Standing Masque
TTITLE12=Jiri Stivin - Variace IV
TTITLE13=Dario Castello - Sonata Prima
TTITLE14=Girolamo Frescobalti - Canzona terza detta la Lucchessina
TTITLE15=Giovanni Battista Riccio - Canzona
TTITLE16=Bartolome de Selma y Salaverde - Canzona
TTITLE17=The Nymphs Dnace (Masque)
TTITLE18=Jiri Stivin - Variace V
TTITLE19=The First Witches Dance (Masque)
TTITLE20=Jiri Stivin - Variace VI
TTITLE21=Jan P. Sw
TTITLE22=elinek - Mein junges Leben hat ein End (Variationen)
TTITLE23=Jiri Stivin - Variace VII
EXTD=YEAR: 1997
EXTT0=
EXTT1=
EXTT2=
EXTT3=
EXTT4=
EXTT5=
EXTT6=
EXTT7=
EXTT8=
EXTT9=
EXTT10=
EXTT11=
EXTT12=
EXTT13=
EXTT14=
EXTT15=
EXTT16=
EXTT17=
EXTT18=
EXTT19=
EXTT20=
EXTT21=
EXTT22=
EXTT23=
PLAYORDER=
